<?xml version="1.0" encoding="UTF-8" standalone="no"?>
<!-- Created with Inkscape (http://www.inkscape.org/) -->

<svg
   width="138.79152mm"
   height="72.259827mm"
   viewBox="0 0 138.79152 72.259827"
   version="1.1"
   id="svg5"
   xml:space="preserve"
   xmlns="http://www.w3.org/2000/svg"
   xmlnsSvg="http://www.w3.org/2000/svg"><defs
     id="defs2" /><g
     id="layer1"
     transform="translate(-47.585994,-74.022068)"><path
       id="path6226"
       style="fill:#e0f8e7;fill-opacity:1;stroke:#000000;stroke-width:0"
       d="M 116.12224,74.022068 A 68.536466,23.953529 0 0 0 47.585995,97.9757 a 68.536466,23.953529 0 0 0 10.434598,12.68104 68.536466,23.953529 0 0 0 -8.716078,11.672 68.536466,23.953529 0 0 0 68.536235,23.95315 68.536466,23.953529 0 0 0 68.53676,-23.95315 68.536466,23.953529 0 0 0 -10.41646,-12.69274 68.536466,23.953529 0 0 0 8.69742,-11.6603 68.536466,23.953529 0 0 0 -68.53623,-23.953632 z m -0.42988,3.593187 a 62.950421,21.158949 0 0 1 62.95079,21.158775 62.950421,21.158949 0 0 1 -8.85366,10.80671 62.950421,21.158949 0 0 1 11.00206,11.9492 62.950421,21.158949 0 0 1 -62.9508,21.15924 62.950421,21.158949 0 0 1 -62.950284,-21.15924 62.950421,21.158949 0 0 1 8.86374,-10.8114 A 62.950421,21.158949 0 0 1 52.742062,98.77403 62.950421,21.158949 0 0 1 115.69236,77.615255 Z" /><path
       style="fill:#e4f7e2;fill-opacity:0.849741;stroke:#000000;stroke-width:0"
       d="M 389.67844,539.42612 C 295.0016,531.87676 220.14846,504.6681 204.98828,472.29235 c -6.94663,-14.83504 -0.40826,-30.25412 19.0555,-44.93755 5.91935,-4.46555 10.94786,-8.58715 11.17447,-9.15911 0.22661,-0.57196 -3.53465,-3.10202 -8.35836,-5.62236 -19.58809,-10.23459 -32.85332,-26.53906 -32.85332,-40.38046 0,-31.50268 58.54824,-61.40663 144.88045,-73.99877 127.85539,-18.64857 276.22924,2.13554 325.83176,45.64232 24.7208,21.68281 19.73678,45.14866 -14.36002,67.61024 l -3.97317,2.61736 9.96746,6.05491 c 27.38247,16.63397 37.34273,34.07027 29.78916,52.14849 -4.14441,9.91898 -18.93251,22.69522 -36.91781,31.89531 -35.60454,18.21291 -87.60453,30.4233 -150.38586,35.3129 -25.32383,1.9723 -84.13913,1.94562 -109.1601,-0.0495 z"
       id="path10228"
       transform="scale(0.26458333)" /></g></svg>
