<?xml version="1.0" encoding="UTF-8" standalone="no"?>
<!-- Created with Inkscape (http://www.inkscape.org/) -->

<svg
   width="176.18614mm"
   height="176.18666mm"
   viewBox="0 0 176.18614 176.18666"
   version="1.1"
   id="svg5"
   xmlns="http://www.w3.org/2000/svg"
   xmlnsSvg="http://www.w3.org/2000/svg">
  <defs
     id="defs2" />
  <g
     id="layer1"
     transform="translate(-16.360395,-60.406592)">
    <path
       id="path4040"
       style="fill:#ececec;fill-opacity:0.992157;stroke:#000000;stroke-width:0"
       d="M 104.4532,60.406593 A 88.093216,88.093216 0 0 0 16.360396,148.49992 88.093216,88.093216 0 0 0 104.4532,236.59325 88.093216,88.093216 0 0 0 192.54654,148.49992 88.093216,88.093216 0 0 0 104.4532,60.406593 Z m 0,17.619079 A 70.474571,70.474571 0 0 1 174.92797,148.49992 70.474571,70.474571 0 0 1 104.4532,218.97469 70.474571,70.474571 0 0 1 33.978958,148.49992 70.474571,70.474571 0 0 1 104.4532,78.025672 Z m 0,12.584245 A 57.889828,57.889828 0 0 0 46.56372,148.49992 57.889828,57.889828 0 0 0 104.4532,206.38993 57.889828,57.889828 0 0 0 162.34321,148.49992 57.889828,57.889828 0 0 0 104.4532,90.609917 Z m 0,16.360233 a 41.529655,41.529655 0 0 1 41.52977,41.52977 41.529655,41.529655 0 0 1 -41.52977,41.52976 41.529655,41.529655 0 0 1 -41.529238,-41.52976 41.529655,41.529655 0 0 1 41.529238,-41.52977 z m 0,15.10193 a 26.427963,26.427963 0 0 0 -26.427835,26.42784 26.427963,26.427963 0 0 0 26.427835,26.42784 26.427963,26.427963 0 0 0 26.42837,-26.42784 26.427963,26.427963 0 0 0 -26.42837,-26.42784 z m 0,15.1014 a 11.326266,11.326266 0 0 1 11.32645,11.32644 11.326266,11.326266 0 0 1 -11.32645,11.32644 11.326266,11.326266 0 0 1 -11.325914,-11.32644 11.326266,11.326266 0 0 1 11.325914,-11.32644 z" />
  </g>
</svg>
